<?xml version="1.0" encoding="utf-8"?>
<!-- Generator: Adobe Illustrator 21.1.0, SVG Export Plug-In . SVG Version: 6.00 Build 0)  -->
<svg version="1.1" id="Layer_1" xmlns="http://www.w3.org/2000/svg" xmlns:xlink="http://www.w3.org/1999/xlink" x="0px" y="0px"
	 width="119.1px" height="101.6px" viewBox="0 0 119.1 101.6" style="enable-background:new 0 0 119.1 101.6;" xml:space="preserve"
	>
<style type="text/css">
	.st0{clip-path:url(#SVGID_2_);}
	.st1{fill:none;}
	.st2{fill:#2A2A2A;}
</style>
<g>
	<g>
		<defs>
			<polyline id="SVGID_1_" points="100,85.3 15.7,85.2 15.7,16.4 			"/>
		</defs>
		<clipPath id="SVGID_2_">
			<use xlink:href="#SVGID_1_"  style="overflow:visible;"/>
		</clipPath>
		<g class="st0">
			<defs>
				<polyline id="SVGID_3_" points="15.6,16.3 15.6,85.3 92.9,85.3 				"/>
			</defs>
			<clipPath id="SVGID_4_">
				<use xlink:href="#SVGID_3_"  style="overflow:visible;"/>
			</clipPath>
		</g>
	</g>
</g>
<image style="overflow:visible;" width="1617" height="1443" xlink:href="73F58C63.jpg"  transform="matrix(4.778971e-02 0 0 4.778971e-02 21.8112 10.9025)">
</image>
<polyline class="st1" points="99.1,79.9 99.1,10.9 21.8,10.9 "/>
<polyline class="st1" points="21.9,10.9 106.2,11 106.2,79.9 "/>
<line x1="98.4" y1="75.4" x2="100.4" y2="75.4"/>
<polyline class="st2" points="98.4,75.6 100.4,75.6 100.4,75.3 98.4,75.3 "/>
<line x1="98.4" y1="66" x2="100.4" y2="66"/>
<polyline class="st2" points="98.4,66.1 100.4,66.1 100.4,65.9 98.4,65.9 "/>
<line x1="98.4" y1="56.3" x2="100.4" y2="56.3"/>
<polyline class="st2" points="98.4,56.4 100.4,56.4 100.4,56.1 98.4,56.1 "/>
<line x1="98.4" y1="46.8" x2="100.4" y2="46.8"/>
<polyline class="st2" points="98.4,47 100.4,47 100.4,46.7 98.4,46.7 "/>
<line x1="98.4" y1="37.1" x2="100.4" y2="37.1"/>
<polyline class="st2" points="98.4,37.3 100.4,37.3 100.4,37 98.4,37 "/>
<line x1="98.4" y1="27.7" x2="100.4" y2="27.7"/>
<polyline class="st2" points="98.4,27.8 100.4,27.8 100.4,27.6 98.4,27.6 "/>
<path d="M103.2,27.1c0.2,0,0.3,0.2,0.3,0.5c0,0.3-0.1,0.6-0.3,0.6c-0.2,0-0.3-0.2-0.3-0.5C102.9,27.2,103,27.1,103.2,27.1z
	 M103.2,26.9c-0.3,0-0.5,0.2-0.5,0.7c0,0.4,0.2,0.7,0.4,0.7c0.3,0,0.5-0.2,0.5-0.7C103.6,27.2,103.5,26.9,103.2,26.9z M102.5,26.9
	h-0.6l-0.1,0.6l0.2,0c0.3,0,0.4,0.1,0.4,0.3c0,0.2-0.1,0.3-0.3,0.3c-0.1,0-0.2,0-0.3-0.1l0,0.1c0.1,0,0.2,0.1,0.3,0.1
	c0.3,0,0.5-0.2,0.5-0.5c0-0.2-0.1-0.3-0.2-0.3c-0.1,0-0.2-0.1-0.3-0.1l-0.1,0l0-0.3h0.5V26.9z"/>
<path d="M103.2,36.5c0.2,0,0.3,0.2,0.3,0.5c0,0.3-0.1,0.5-0.3,0.5c-0.2,0-0.3-0.2-0.3-0.5C102.9,36.7,103,36.5,103.2,36.5z
	 M103.2,36.4c-0.3,0-0.5,0.2-0.5,0.7c0,0.4,0.2,0.7,0.4,0.7c0.3,0,0.5-0.2,0.5-0.7C103.6,36.6,103.5,36.4,103.2,36.4z M101.9,37.2
	L101.9,37.2l0.3-0.4l0.1-0.2h0l0,0.2v0.4H101.9z M102.5,37.7v-0.4h0.2v-0.1h-0.2v-0.8h-0.2l-0.6,0.8v0.1h0.6v0.4H102.5z"/>
<path d="M103.2,55.7c0.2,0,0.3,0.2,0.3,0.5c0,0.3-0.1,0.5-0.3,0.5c-0.2,0-0.3-0.2-0.3-0.5C102.9,55.8,103,55.7,103.2,55.7z
	 M103.2,55.5c-0.3,0-0.5,0.2-0.5,0.7c0,0.4,0.2,0.7,0.4,0.7c0.3,0,0.5-0.2,0.5-0.7C103.6,55.8,103.5,55.5,103.2,55.5z M102.6,56.8
	v-0.1H102v0l0.1-0.1c0.3-0.3,0.4-0.5,0.4-0.7c0-0.2-0.1-0.4-0.4-0.4c-0.1,0-0.3,0.1-0.4,0.1l0.1,0.1c0.1,0,0.2-0.1,0.3-0.1
	c0.2,0,0.3,0.1,0.3,0.3c0,0.2-0.2,0.4-0.5,0.7l-0.1,0.1v0.1H102.6z"/>
<path d="M103.2,46.2c0.2,0,0.3,0.2,0.3,0.5c0,0.3-0.1,0.5-0.3,0.5c-0.2,0-0.3-0.2-0.3-0.5C102.9,46.4,103,46.2,103.2,46.2z
	 M103.2,46.1c-0.3,0-0.5,0.2-0.5,0.7c0,0.4,0.2,0.7,0.4,0.7c0.3,0,0.5-0.2,0.5-0.7C103.6,46.3,103.5,46.1,103.2,46.1z M101.7,47.3
	c0.1,0,0.2,0.1,0.3,0.1c0.3,0,0.5-0.2,0.5-0.4c0-0.2-0.1-0.3-0.3-0.3v0c0.2-0.1,0.2-0.2,0.2-0.3c0-0.2-0.1-0.3-0.4-0.3
	c-0.1,0-0.3,0-0.3,0.1l0,0.1c0.1,0,0.2-0.1,0.3-0.1c0.2,0,0.2,0.1,0.2,0.2c0,0.2-0.2,0.2-0.3,0.2h-0.1v0.1h0.1
	c0.2,0,0.3,0.1,0.3,0.3c0,0.1-0.1,0.3-0.3,0.3c-0.1,0-0.2,0-0.3-0.1L101.7,47.3z"/>
<path d="M102.2,74.8c0.2,0,0.3,0.2,0.3,0.5c0,0.3-0.1,0.5-0.3,0.5c-0.2,0-0.3-0.2-0.3-0.5C101.9,75,102,74.8,102.2,74.8z
	 M102.2,74.7c-0.3,0-0.5,0.2-0.5,0.7c0,0.4,0.2,0.7,0.4,0.7c0.3,0,0.5-0.2,0.5-0.7C102.6,74.9,102.5,74.7,102.2,74.7z"/>
<path d="M103.2,65.4c0.2,0,0.3,0.2,0.3,0.5c0,0.3-0.1,0.5-0.3,0.5c-0.2,0-0.3-0.2-0.3-0.5C102.9,65.6,103,65.4,103.2,65.4z
	 M103.2,65.2c-0.3,0-0.5,0.2-0.5,0.7c0,0.4,0.2,0.7,0.4,0.7c0.3,0,0.5-0.2,0.5-0.7C103.6,65.5,103.5,65.2,103.2,65.2z M102.1,66.6
	h0.2v-1.3h-0.1l-0.3,0.2l0,0.1l0.2-0.1h0V66.6z"/>
</svg>
